# xmcd
#
# Track frame offsets:
#	150
#	38185
#	60150
#	79264
#	113130
#	124274
#	179739
#	212525
#	254318
#
# Disc length: 4154 seconds
#
# Revision: 0
# Processed by: cddbd v1.5.2PL0 Copyright (c) Steve Scherf et al.
# Submitted via: EasyCDDAExtractor 10.0.3.1
#
DISCID=79103809
DTITLE=Larry Coryell and the Eleventh House - The Bottom Line
DYEAR=1974
DGENRE=Blues
TTITLE0=Right On Y'all
TTITLE1=Adam Smasher
TTITLE2=Theme For A Dream
TTITLE3=Isem
TTITLE4=Group Intros
TTITLE5=Mandel Solo
TTITLE6=Funky Waltz
TTITLE7=Birdfingers
TTITLE8=The Cover Girl
EXTD=
EXTT0=
EXTT1=
EXTT2=
EXTT3=
EXTT4=
EXTT5=
EXTT6=
EXTT7=
EXTT8=
PLAYORDER=
